Coordinates
version=1
nRows=6
nColumns=63
inDegrees=yes

Units are S.I. units (second, meters, Newtons, ...)
If the header above contains a line with 'inDegrees', this indicates whether rotational values are in degrees (yes) or radians (no).

endheader
time	pelvis_tilt	pelvis_list	pelvis_rotation	pelvis_tx	pelvis_ty	pelvis_tz	hip_flexion_r	hip_adduction_r	hip_rotation_r	knee_angle_r	knee_angle_r_beta	ankle_angle_r	subtalar_angle_r	mtp_angle_r	hip_flexion_l	hip_adduction_l	hip_rotation_l	knee_angle_l	knee_angle_l_beta	ankle_angle_l	subtalar_angle_l	mtp_angle_l	L5_S1_Flex_Ext	L5_S1_Lat_Bending	L5_S1_axial_rotation	L4_L5_Flex_Ext	L4_L5_Lat_Bending	L4_L5_axial_rotation	L3_L4_Flex_Ext	L3_L4_Lat_Bending	L3_L4_axial_rotation	L2_L3_Flex_Ext	L2_L3_Lat_Bending	L2_L3_axial_rotation	L1_L2_Flex_Ext	L1_L2_Lat_Bending	L1_L2_axial_rotation	L1_T12_Flex_Ext	L1_T12_Lat_Bending	L1_T12_axial_rotation	Abs_r3	Abs_r2	Abs_r1	Abs_t1	Abs_t2	neck_flexion	neck_bending	neck_rotation	arm_flex_r	arm_add_r	arm_rot_r	elbow_flex_r	pro_sup_r	wrist_flex_r	wrist_dev_r	arm_flex_l	arm_add_l	arm_rot_l	elbow_flex_l	pro_sup_l	wrist_flex_l	wrist_dev_l
0.000000	0.571702	-2.166685	104.010303	0.064154	0.896664	0.570293	0.322490	3.444087	-5.719159	6.137842	0.107126	30.520966	-0.194787	0.000000	-0.523639	-1.278475	16.840692	0.896072	0.015639	30.100103	-15.977125	0.000000	0.376809	0.378613	-1.358849	0.699771	0.503555	-1.443777	0.619059	0.920559	-1.443777	0.430655	0.920559	-1.188993	0.349904	0.772067	-1.104065	0.215308	0.586471	-1.019136	2.691506	4.282945	-7.557509	0.000000	0.000000	21.385425	1.418700	4.585686	20.524861	-8.440684	78.843994	46.358118	9.330004	-4.364922	4.653144	13.918754	-11.564159	63.305975	47.270604	24.827047	-1.048966	11.567939
0.018519	0.373684	-2.818629	102.065449	0.066235	0.894125	0.574200	1.956410	2.998347	-5.711473	7.731163	0.134934	31.606639	2.083402	0.000000	0.416417	-0.892237	14.777178	1.196946	0.020891	30.366663	-16.100995	0.000000	0.373500	0.383746	-0.919893	0.693627	0.510382	-0.977387	0.613623	0.933040	-0.977387	0.426873	0.933040	-0.804907	0.346832	0.782535	-0.747413	0.213418	0.594423	-0.689920	2.667874	4.341013	-5.116170	0.000000	0.000000	22.661575	1.316484	5.297166	22.102522	-8.073545	80.640710	45.712933	16.104201	-2.833924	2.693944	15.816230	-11.015504	64.833608	46.653577	24.335805	-2.321654	6.308428
0.037037	0.112122	-3.418474	100.469812	0.068003	0.892005	0.577528	3.374911	2.477334	-5.929879	9.126838	0.159293	32.558519	4.168842	0.000000	1.251007	-0.455577	13.055806	1.455242	0.025399	30.569935	-16.165451	0.000000	0.371967	0.369883	-0.575228	0.690780	0.491944	-0.611180	0.611105	0.899333	-0.611180	0.425121	0.899333	-0.503325	0.345409	0.754265	-0.467373	0.212542	0.572948	-0.431421	2.656925	4.184188	-3.199247	0.000000	0.000000	23.759621	1.373134	5.805219	23.360186	-7.692515	81.343198	45.157923	22.554710	-1.734737	1.024143	17.295807	-10.557953	65.724224	45.804578	24.857591	-3.284999	2.009997
0.055556	-0.202381	-3.962884	99.200477	0.069473	0.890281	0.580299	4.583138	1.897690	-6.345100	10.330602	0.180303	33.383602	6.062751	0.000000	1.979104	0.019617	11.653923	1.673061	0.029200	30.716729	-16.173836	0.000000	0.371680	0.339477	-0.317093	0.690247	0.451505	-0.336911	0.610633	0.825405	-0.336911	0.424793	0.825405	-0.277456	0.345142	0.692262	-0.257638	0.212378	0.525850	-0.237819	2.654872	3.840234	-1.763573	0.000000	0.000000	24.688306	1.570533	6.128768	24.321486	-7.311710	81.087848	44.675740	28.687423	-1.031020	-0.374185	18.388546	-10.192587	66.048873	44.758704	26.289400	-3.989842	-1.404757
0.074074	-0.559224	-4.448527	98.234531	0.070661	0.888925	0.582534	5.586239	1.276059	-6.927855	11.348191	0.198063	34.088884	7.766347	0.000000	2.599685	0.521457	10.548874	1.852502	0.032332	30.813858	-16.129490	0.000000	0.372108	0.294984	-0.137725	0.691041	0.392328	-0.146333	0.611336	0.717223	-0.146333	0.425282	0.717223	-0.120510	0.345539	0.601530	-0.111902	0.212622	0.456930	-0.103294	2.657928	3.336913	-0.765987	0.000000	0.000000	25.456376	1.890562	6.286734	25.010055	-6.945249	80.011052	44.249036	34.508234	-0.686430	-1.518965	19.125505	-9.920487	65.878602	43.551053	28.528224	-4.487024	-4.013236
0.092593	-0.947802	-4.872069	97.549060	0.071581	0.887914	0.584254	6.389358	0.629082	-7.648868	12.185342	0.212674	34.681363	9.280845	0.000000	3.111724	1.038058	9.718007	1.995665	0.034831	30.868134	-16.035757	0.000000	0.372721	0.238856	-0.029366	0.692179	0.317679	-0.031201	0.612343	0.580755	-0.031201	0.425982	0.580755	-0.025695	0.346108	0.487076	-0.023860	0.212973	0.369988	-0.022024	2.662306	2.701989	-0.163324	0.000000	0.000000	26.072574	2.315103	6.298043	25.449525	-6.607246	78.249202	43.860462	40.023034	-0.664627	-2.428122	19.537744	-9.742734	65.284462	42.216725	31.471057	-4.827390	-5.892843
